<svg width="20" height="20" viewBox="0 0 20 20" fill="none" xmlns="http://www.w3.org/2000/svg">
<g clip-path="url(#clip0_109_25)">
<path d="M17 1H3C1.89543 1 1 1.89543 1 3V17C1 18.1046 1.89543 19 3 19H17C18.1046 19 19 18.1046 19 17V3C19 1.89543 18.1046 1 17 1Z" stroke="black" stroke-width="2" stroke-linecap="round" stroke-linejoin="round"/>
<path d="M7 9C8.10457 9 9 8.10457 9 7C9 5.89543 8.10457 5 7 5C5.89543 5 5 5.89543 5 7C5 8.10457 5.89543 9 7 9Z" stroke="black" stroke-width="2" stroke-linecap="round" stroke-linejoin="round"/>
<path d="M19 13L15.914 9.914C15.5389 9.53906 15.0303 9.32843 14.5 9.32843C13.9697 9.32843 13.4611 9.53906 13.086 9.914L4 19" stroke="black" stroke-width="2" stroke-linecap="round" stroke-linejoin="round"/>
</g>
<defs>
<clipPath id="clip0_109_25">
<rect width="20" height="20" fill="white"/>
</clipPath>
</defs>
</svg>
